# xmcd CD database file
#
# Track frame offsets:
#	182
#	22492
#	46015
#	65197
#	83112
#	101462
#	127302
#	145835
#	174117
#	195212
#	213347
#
# Disc length: 3012 seconds
#
# Revision: 3
# Processed by: cddbd v1.5.2PL0 Copyright (c) Steve Scherf et al.
# Submitted via: CDex 1.51
#
DISCID=990bc20b
DTITLE=Sixun - Nouvelle Vague
DYEAR=1998
DGENRE=Jazz
TTITLE0=Un Week End Chez René
TTITLE1=Trianon
TTITLE2=Singapore
TTITLE3=Y Bo Cé
TTITLE4=Rapisrap
TTITLE5=La Plage
TTITLE6=No Moustic No Frog
TTITLE7=Nouvelle Vague
TTITLE8=Alibabacid
TTITLE9=Felafro
TTITLE10=Jungle Java
EXTD=YEAR: 1998
EXTT0=
EXTT1=
EXTT2=
EXTT3=
EXTT4=
EXTT5=
EXTT6=
EXTT7=
EXTT8=
EXTT9=
EXTT10=
PLAYORDER=
